<?xml version="1.0" standalone="no"?>
<!DOCTYPE svg PUBLIC "-//W3C//DTD SVG 20010904//EN"
 "http://www.w3.org/TR/2001/REC-SVG-20010904/DTD/svg10.dtd">
<svg version="1.0" xmlns="http://www.w3.org/2000/svg"
 width="500.000000pt" height="500.000000pt" viewBox="0 0 500.000000 500.000000"
 preserveAspectRatio="xMidYMid meet">
<metadata>
Created by potrace 1.14, written by Peter Selinger 2001-2017
</metadata>
<g transform="translate(0.000000,500.000000) scale(0.100000,-0.100000)"
fill="#000000" stroke="none">
<path d="M0 2500 l0 -2500 2500 0 2500 0 0 2500 0 2500 -2500 0 -2500 0 0
-2500z m1700 245 l0 -765 275 0 275 0 0 765 0 765 596 0 c505 0 606 -2 664
-16 161 -36 296 -178 345 -364 20 -74 19 -213 -1 -281 -39 -131 -129 -251
-227 -301 -42 -21 -42 -21 -17 -31 144 -57 242 -140 294 -251 54 -112 70 -267
41 -381 -23 -85 -61 -149 -128 -211 -102 -95 -249 -152 -445 -173 -69 -7 -453
-11 -1162 -11 l-1060 0 0 1010 0 1010 275 0 275 0 0 -765z"/>
<path d="M2800 2880 l0 -150 210 0 c189 0 215 2 249 19 47 25 66 66 65 144 -1
63 -21 102 -65 124 -17 9 -89 13 -241 13 l-218 0 0 -150z"/>
<path d="M2800 2125 l0 -165 241 0 c226 0 244 1 279 21 93 52 105 193 24 274
l-35 35 -254 0 -255 0 0 -165z"/>
</g>
</svg>
